# xmcd CD database file
#
# Track frame offsets:
#	150
#	16245
#	28747
#	44251
#	51494
#	68497
#	84670
#	100518
#	115200
#	130329
#	145733
#	166639
#
# Disc length: 2452 seconds
#
# Revision: 0
# Processed by: cddbd v1.5.2PL0 Copyright (c) Steve Scherf et al.
# Submitted via: CDex 1.70beta2
#
DISCID=9509920c
DTITLE=Pa´ los Pies - Son de Tikizia
DYEAR=2007
DGENRE=Salsa
TTITLE0=Jugaste con mi destino
TTITLE1=Pa'los pies
TTITLE2=No me importa
TTITLE3=Variaciones Goldberg, variación #18
TTITLE4=Me quité las vendas
TTITLE5=Juan González
TTITLE6=Son de Tikizia
TTITLE7=Mi Doña
TTITLE8=Par 23
TTITLE9=Que te vaya bien
TTITLE10=Nuestra indifirencia
TTITLE11=Juan González (versión larga)
EXTD=YEAR: 2007
EXTT0=
EXTT1=
EXTT2=
EXTT3=
EXTT4=
EXTT5=
EXTT6=
EXTT7=
EXTT8=
EXTT9=
EXTT10=
EXTT11=
PLAYORDER=
